<?xml version="1.0" standalone="no"?>
<!DOCTYPE svg PUBLIC "-//W3C//DTD SVG 20010904//EN"
 "http://www.w3.org/TR/2001/REC-SVG-20010904/DTD/svg10.dtd">
<svg version="1.0" xmlns="http://www.w3.org/2000/svg"
 width="1024.000000pt" height="1024.000000pt" viewBox="0 0 1024.000000 1024.000000"
 preserveAspectRatio="xMidYMid meet">

<g transform="translate(0.000000,1024.000000) scale(0.100000,-0.100000)"
stroke="none">

<path d="M4750 8460 c-698 -67 -1294 -309 -1807 -733 -127 -105 -380 -360
-463 -466 -428 -545 -666 -1115 -742 -1776 -17 -143 -16 -589 0 -725 35 -288
117 -647 163 -711 25 -35 64 -44 115 -25 36 12 359 156 792 352 89 41 173 81
186 90 44 28 49 65 22 173 -61 239 -77 548 -43 798 67 483 305 921 686 1260
311 277 625 427 1052 502 84 15 118 26 137 43 22 20 189 240 491 648 46 63
129 175 183 248 130 175 141 194 133 232 -4 17 -17 37 -29 45 -55 37 -645 67
-876 45z" fill="#1E40AF"
       stroke="#FB923C " 
       stroke-width="100"/>


<path d="M6180 8347 c-25 -12 -88 -88 -424 -512 -156 -197 -256 -325 -576
-740 -73 -94 -293 -387 -310 -411 -8 -12 -278 -371 -600 -799 -322 -427 -600
-797 -617 -823 -47 -67 -52 -104 -20 -136 l26 -26 451 0 c482 0 504 -2 530
-50 17 -31 15 -75 -3 -117 -9 -21 -73 -175 -143 -343 -69 -168 -144 -348 -166
-400 -45 -105 -162 -393 -389 -955 -159 -395 -217 -508 -259 -513 -75 -7 -72
49 14 298 100 286 146 428 157 487 13 69 0 94 -93 175 -98 84 -209 198 -277
283 -31 39 -59 72 -62 75 -3 3 -45 63 -92 134 -47 71 -98 137 -114 147 -58 39
-105 28 -326 -75 -339 -158 -476 -220 -625 -286 -80 -35 -149 -72 -157 -83
-26 -36 -17 -83 31 -180 238 -474 609 -891 1049 -1179 161 -106 343 -198 390
-198 63 0 14 -56 597 675 96 121 191 238 210 260 19 22 77 92 129 156 52 64
198 242 324 394 127 152 255 307 285 344 30 37 125 153 210 256 134 164 260
317 745 915 89 109 274 342 378 476 48 61 58 94 43 140 -15 48 -30 49 -532 50
-258 0 -481 4 -495 7 -59 15 -56 64 16 262 155 425 278 754 601 1610 228 606
226 600 218 631 -7 26 -56 64 -84 64 -8 0 -26 -6 -40 -13z m85 -29 c37 -29 33
-55 -50 -263 -37 -93 -78 -202 -91 -241 -12 -39 -30 -86 -38 -105 -14 -30
-112 -291 -202 -534 -32 -88 -134 -360 -179 -480 -13 -33 -40 -105 -59 -160
-20 -55 -59 -158 -86 -230 -53 -141 -121 -335 -140 -402 -17 -55 -7 -89 33
-113 31 -19 52 -20 510 -20 l478 0 24 -25 c14 -13 25 -35 25 -48 0 -22 -47
-99 -97 -157 -31 -36 -80 -98 -148 -185 -110 -140 -447 -558 -703 -869 -45
-56 -95 -117 -111 -136 -16 -19 -64 -78 -108 -130 -43 -52 -130 -158 -192
-235 -63 -77 -130 -158 -150 -181 -20 -22 -79 -93 -131 -158 -52 -64 -125
-152 -161 -194 -36 -42 -90 -109 -121 -148 -31 -39 -75 -93 -98 -120 -58 -68
-71 -84 -104 -129 -16 -22 -38 -48 -48 -58 -10 -10 -70 -82 -132 -160 -62 -78
-166 -209 -232 -291 -65 -82 -147 -185 -182 -230 -112 -144 -133 -165 -173
-178 -36 -10 -44 -8 -134 35 -245 118 -482 289 -717 515 -144 139 -359 403
-438 537 -13 22 -38 63 -56 91 -43 66 -154 284 -154 302 0 26 40 70 83 90 23
11 137 62 252 113 116 51 212 96 215 99 3 3 21 12 40 20 19 7 105 47 190 88
178 86 220 102 264 102 50 0 81 -29 162 -151 67 -100 127 -183 144 -199 3 -3
17 -21 31 -40 39 -52 174 -188 254 -254 88 -74 108 -106 101 -166 -5 -46 -68
-243 -170 -535 -70 -200 -73 -252 -14 -276 25 -10 33 -9 56 8 37 27 116 188
212 433 68 173 110 277 160 395 34 81 150 367 160 395 7 19 27 69 45 110 18
41 49 116 70 165 20 50 41 99 45 110 5 11 20 47 34 80 76 184 132 317 158 373
15 34 40 98 55 141 24 69 26 83 15 117 -22 75 -11 74 -527 74 -438 1 -459 2
-485 20 -25 18 -27 24 -20 55 8 34 25 66 55 103 20 25 188 244 205 268 8 11
56 74 105 140 50 65 97 129 105 141 11 16 302 402 412 548 143 188 180 237
204 271 40 57 495 656 649 854 44 56 89 115 100 130 23 31 35 47 191 245 108
137 269 341 348 440 17 21 43 53 59 71 15 17 27 34 27 38 0 3 21 29 47 56 53
57 83 63 128 28z" fill="#FB923C" 
      stroke="#FB923C" 
      stroke-width="300"/>


<path d="M6651 8033 c-23 -21 -39 -58 -70 -153 -38 -118 -82 -260 -235 -742
-48 -151 -64 -216 -59 -238 6 -34 14 -42 153 -158 272 -227 507 -547 631 -859
96 -243 139 -470 139 -741 0 -249 -31 -444 -106 -669 -152 -459 -424 -810
-834 -1079 -390 -256 -866 -382 -1351 -359 l-146 7 -31 -28 c-32 -31 -46 -68
-222 -624 -106 -332 -150 -482 -150 -506 0 -39 36 -72 93 -83 239 -48 767 -62
1032 -28 516 67 974 239 1420 532 650 428 1142 1065 1376 1779 64 195 119 444
149 671 18 129 24 555 11 690 -52 542 -237 1056 -546 1520 -135 201 -247 337
-435 526 -220 222 -468 416 -681 533 -79 43 -100 45 -138 9z" fill="#1E40AF"  
       stroke="#FB923C " 
       stroke-width="100"/>

</g>
</svg>
